<svg width="16" height="16" viewBox="0 0 16 16" fill="none" xmlns="http://www.w3.org/2000/svg">
    <path d="M1.332 5.135c0-.995.806-1.802 1.801-1.802a1.2 1.2 0 0 0 1.14-.82l.059-.18c.028-.084.042-.126.057-.164a1.333 1.333 0 0 1 1.157-.833c.04-.003.085-.003.173-.003h4.559c.089 0 .133 0 .174.003.514.031.964.355 1.156.833.015.038.03.08.057.164l.06.18a1.2 1.2 0 0 0 1.14.82c.994 0 1.8.807 1.8 1.802V10.8c0 1.12 0 1.68-.218 2.108a2 2 0 0 1-.874.874c-.428.218-.988.218-2.108.218H4.532c-1.12 0-1.68 0-2.108-.218a2 2 0 0 1-.874-.874c-.218-.428-.218-.988-.218-2.108V5.135z" stroke="#B3B3B3" stroke-width="2" stroke-linecap="round" stroke-linejoin="round"/>
    <path d="M7.999 11a3 3 0 1 0 0-6 3 3 0 0 0 0 6z" stroke="#B3B3B3" stroke-width="2" stroke-linecap="round" stroke-linejoin="round"/>
</svg>
