<svg width="16" height="16" viewBox="0 0 16 16" fill="none" xmlns="http://www.w3.org/2000/svg">
    <path d="M8 14v-.007M8 11v-.007M8 5v-.007M8 8v-.007M8 2v-.007M14 2h-.533c-.747 0-1.12 0-1.406.145-.25.128-.454.332-.582.583-.146.285-.146.659-.146 1.405v7.734c0 .746 0 1.12.146 1.405.128.25.332.455.582.583.286.145.659.145 1.406.145H14M2 2h.533c.747 0 1.12 0 1.406.145.25.128.455.332.582.583.146.285.146.659.146 1.405v7.734c0 .746 0 1.12-.146 1.405-.127.25-.331.455-.582.583C3.653 14 3.28 14 2.533 14H2" stroke="#B3B3B3" stroke-width="2" stroke-linecap="round" stroke-linejoin="round" opacity=".4"/>
</svg>
