<svg width="16" height="16" viewBox="0 0 16 16" fill="none" xmlns="http://www.w3.org/2000/svg">
    <path d="M8.001 4a.667.667 0 1 0 0-1.333.667.667 0 0 0 0 1.333zM8.001 8.667a.667.667 0 1 0 0-1.334.667.667 0 0 0 0 1.334zM8.001 13.333a.667.667 0 1 0 0-1.333.667.667 0 0 0 0 1.333zM12.668 4a.667.667 0 1 0 0-1.333.667.667 0 0 0 0 1.333zM12.668 8.667a.667.667 0 1 0 0-1.334.667.667 0 0 0 0 1.334zM12.668 13.333a.667.667 0 1 0 0-1.333.667.667 0 0 0 0 1.333zM3.335 4a.667.667 0 1 0 0-1.333.667.667 0 0 0 0 1.333zM3.335 8.667a.667.667 0 1 0 0-1.334.667.667 0 0 0 0 1.334zM3.335 13.333a.667.667 0 1 0 0-1.333.667.667 0 0 0 0 1.333z" stroke="#B3B3B3" stroke-width="2" stroke-linecap="round" stroke-linejoin="round"/>
</svg>
