<svg width="16" height="16" viewBox="0 0 16 16" fill="none" xmlns="http://www.w3.org/2000/svg">
    <g clip-path="url(#x622jndkva)">
        <path d="M4.665 6.333 1.332 8l6.428 3.214c.088.044.131.066.177.074.04.008.083.008.123 0 .046-.008.09-.03.177-.074L14.665 8l-3.333-1.667M4.665 9.667l-3.333 1.666 6.428 3.214c.088.044.131.066.177.075.04.007.083.007.123 0 .046-.009.09-.03.177-.075l6.428-3.214-3.333-1.666m-10-5L7.76 1.453c.088-.044.131-.066.177-.075a.333.333 0 0 1 .123 0c.046.009.09.03.177.075l6.428 3.214L8.237 7.88c-.087.043-.131.065-.177.074a.333.333 0 0 1-.123 0c-.046-.009-.09-.03-.177-.074L1.332 4.667z" stroke="#B3B3B3" stroke-width="2" stroke-linecap="round" stroke-linejoin="round"/>
    </g>
    <defs>
        <clipPath id="x622jndkva">
            <path fill="#fff" d="M0 0h16v16H0z"/>
        </clipPath>
    </defs>
</svg>
