<svg width="24" height="24" viewBox="0 0 24 24" fill="none" xmlns="http://www.w3.org/2000/svg">
    <g clip-path="url(#d6d6qlx1sa)" fill="#FA5202">
        <path fill-rule="evenodd" clip-rule="evenodd" d="M12.018 1.19c1.012 0 1.92.554 2.394 1.411 2.54.97 4.356 3.437 4.356 6.309v2.89c0 .467.22 1.27.453 1.673l1.15 1.911c.907 1.51.18 3.476-1.484 4.027a21.715 21.715 0 0 1-3.309.822 3.76 3.76 0 0 1-3.56 2.577c-1 0-1.955-.405-2.65-1.1a3.764 3.764 0 0 1-.908-1.475 21.741 21.741 0 0 1-3.322-.825c-1.755-.594-2.438-2.439-1.482-4.028l1.149-1.906c.242-.407.463-1.206.463-1.677V8.91A6.757 6.757 0 0 1 9.626 2.6a2.734 2.734 0 0 1 2.392-1.41zm1.756 19.266c-1.169.096-2.344.096-3.513.002.053.066.107.132.168.192.416.416.992.66 1.59.66.708 0 1.342-.336 1.755-.854zm-.959-16.711a6.015 6.015 0 0 0-2.396.164 5.258 5.258 0 0 0-3.65 5v2.89c0 .743-.296 1.806-.678 2.448l-1.15 1.91c-.46.766-.173 1.545.675 1.832a20.174 20.174 0 0 0 12.797-.001 1.252 1.252 0 0 0 .673-1.831l-1.157-1.922c-.37-.641-.66-1.702-.66-2.436V8.91c0-2.343-1.56-4.344-3.693-5.012a5.224 5.224 0 0 0-.76-.152z"/>
        <circle cx="18" cy="4" r="3" stroke="#fff"/>
    </g>
    <defs>
        <clipPath id="d6d6qlx1sa">
            <path fill="#fff" d="M0 0h24v24H0z"/>
        </clipPath>
    </defs>
</svg>
