<svg width="40" height="11" viewBox="0 0 40 11" fill="none" xmlns="http://www.w3.org/2000/svg">
    <g clip-path="url(#9s51b783pa)">
        <path fill-rule="evenodd" clip-rule="evenodd" d="M27.963.963v9.074c0 .532.414.963.926.963.511 0 .926-.431.926-.963V.963c0-.532-.415-.963-.926-.963-.512 0-.926.431-.926.963zM18.546 0h-.2l-.013 10.046c0 .528.418.954.932.954a.943.943 0 0 0 .933-.954l.012-8.17h3.036c1.126 0 1.307.778 1.307 1.221 0 1.095-.799 1.248-1.002 1.27h-.542L23 4.364h-1.025c-.454 0-.82.415-.82.927s.366.927.82.927h.842l.01.001h.754c.264.03 1.148.224 1.148 1.445 0 1.154-.849 1.36-1.509 1.36h-.21c-.155-.01-.212-.008-.44-.006-.134.001-.323.002-.622 0-.45 0-.815.419-.815.934 0 .516.365.934.815.934h1.5c1.778.108 3.241-1.101 3.39-2.834.006-.057.006-.113.007-.17.046-.753-.09-2.165-1.627-2.727.334-.217.605-.502.801-.857a3.091 3.091 0 0 0 .215-2.515 2.996 2.996 0 0 0-.483-.894 2.546 2.546 0 0 0-.76-.642 2.045 2.045 0 0 0-1-.248h-5.445zM9.64 0a.01.01 0 0 0-.01.01v10.788c0 .005.005.009.01.009h6.782c.505 0 .963-.392.985-.914.023-.549-.4-1-.925-1H11.49c-.005 0-.01-.004-.01-.01v-6.96a.01.01 0 0 1 .01-.01h4.992c.525 0 .947-.451.925-.999C17.384.391 16.927 0 16.42 0H9.64zm22.213 0c-.512 0-.926.432-.926.965 0 .533.414.965.926.965h3.702c.512 0 .927-.432.927-.965 0-.533-.415-.965-.927-.965h-3.702zM.91 0C.407 0 0 .432 0 .965c0 .533.407.965.91.965H4.09c.502 0 .909-.432.909-.965C5 .432 4.593 0 4.091 0H.909zm37.469.531-7.24 8.914a.954.954 0 0 0 .118 1.323c.154.131.336.2.52.213.06.013.122.019.186.019h6.905c.507 0 .917-.42.917-.94 0-.518-.41-.939-.917-.939h-5.08l6-7.387A.954.954 0 0 0 39.67.41a.9.9 0 0 0-1.292.12zM6.82.216c-.499.111-.816.625-.71 1.145.118.567.31 2.365-.313 3.159-.141.181-.407.43-1.045.414-1.457-.018-3.81-.001-3.834-.001C.41 4.937 0 5.367 0 5.897v4.139c0 .532.414.964.925.964.511 0 .925-.432.925-.964v-3.18c.817-.003 2.011-.005 2.88.006.085 0 .162-.008.243-.012.017.045.033.089.057.132l1.915 3.458a.907.907 0 0 0 1.264.353l.033-.02c.44-.265.593-.858.338-1.317L6.775 6.197c.186-.15.34-.308.458-.46 1.295-1.656.752-4.47.686-4.786a.934.934 0 0 0-.903-.758.9.9 0 0 0-.196.023zm6.13 4.223c-.505 0-.913.431-.913.965 0 .532.408.964.912.964h1.139c.504 0 .912-.432.912-.964 0-.534-.408-.965-.912-.965h-1.139z" fill="#EF5423"/>
    </g>
    <defs>
        <clipPath id="9s51b783pa">
            <path fill="#fff" d="M0 0h40v11H0z"/>
        </clipPath>
    </defs>
</svg>
