<svg width="16" height="16" viewBox="0 0 16 16" fill="none" xmlns="http://www.w3.org/2000/svg">
    <path d="M6.001 7.667 7.335 9l3-3m3 2c0 3.272-3.57 5.652-4.868 6.41-.148.086-.222.13-.326.151a.76.76 0 0 1-.28 0c-.104-.022-.177-.065-.325-.151-1.299-.758-4.868-3.138-4.868-6.41V4.812c0-.533 0-.8.087-1.029.077-.202.202-.383.365-.526.184-.162.433-.256.932-.443l3.575-1.34c.138-.052.208-.078.279-.088a.666.666 0 0 1 .19 0c.072.01.141.036.28.088l3.574 1.34c.5.187.749.28.933.443.162.143.288.324.365.526.087.23.087.496.087 1.029V8z" stroke="#FA5202" stroke-width="2" stroke-linecap="round" stroke-linejoin="round"/>
</svg>
