<svg width="16" height="16" viewBox="0 0 16 16" fill="none" xmlns="http://www.w3.org/2000/svg">
    <path d="M12.002 10.558c.97.488 1.803 1.27 2.41 2.248.12.194.18.291.201.425a.723.723 0 0 1-.398.716C14.09 14 13.95 14 13.67 14m-3-6.312a3 3 0 0 0 0-5.376M9.335 5a3 3 0 1 1-6 0 3 3 0 0 1 6 0zm-7.627 7.626C2.771 11.03 4.448 10 6.335 10c1.887 0 3.564 1.03 4.627 2.626.233.35.35.524.336.747a.74.74 0 0 1-.263.492c-.178.135-.424.135-.915.135H2.55c-.49 0-.736 0-.915-.135a.74.74 0 0 1-.263-.492c-.013-.223.103-.398.336-.747z" stroke="#fa5202" stroke-width="2" stroke-linecap="round" stroke-linejoin="round"/>
</svg>